<mxfile host="app.diagrams.net" modified="2021-03-17T07:41:56.189Z" agent="5.0 (Windows)" etag="IuJXcTpB0O3JzP_M1uc3" version="14.4.8" type="github">
  <diagram id="BumKpP9zG7-PkTxgRSuZ" name="Page-1">
    <mxGraphModel dx="1885" dy="836" grid="0" gridSize="10" guides="1" tooltips="1" connect="1" arrows="1" fold="1" page="0" pageScale="1" pageWidth="1200" pageHeight="1920" math="0" shadow="0">
      <root>
        <mxCell id="0" />
        <mxCell id="1" parent="0" />
        <mxCell id="OFLN6ch1py2yGaiHkbmR-209" value="" style="rounded=0;whiteSpace=wrap;html=1;strokeWidth=1;" parent="1" vertex="1">
          <mxGeometry x="-190" y="1310" width="620" height="220" as="geometry" />
        </mxCell>
        <mxCell id="OFLN6ch1py2yGaiHkbmR-164" value="" style="rounded=0;whiteSpace=wrap;html=1;strokeWidth=1;" parent="1" vertex="1">
          <mxGeometry x="1460" y="340" width="780" height="600" as="geometry" />
        </mxCell>
        <mxCell id="OFLN6ch1py2yGaiHkbmR-28" value="" style="rounded=0;whiteSpace=wrap;html=1;" parent="1" vertex="1">
          <mxGeometry x="610" y="280" width="650" height="740" as="geometry" />
        </mxCell>
        <mxCell id="OFLN6ch1py2yGaiHkbmR-104" value="" style="rounded=0;whiteSpace=wrap;html=1;strokeWidth=1;" parent="1" vertex="1">
          <mxGeometry x="645" y="310" width="580" height="490" as="geometry" />
        </mxCell>
        <mxCell id="OFLN6ch1py2yGaiHkbmR-25" value="" style="rounded=0;whiteSpace=wrap;html=1;" parent="1" vertex="1">
          <mxGeometry x="-280" y="300" width="750" height="660" as="geometry" />
        </mxCell>
        <mxCell id="OFLN6ch1py2yGaiHkbmR-8" value="" style="edgeStyle=orthogonalEdgeStyle;rounded=0;orthogonalLoop=1;jettySize=auto;html=1;startArrow=diamondThin;startFill=1;" parent="1" source="OFLN6ch1py2yGaiHkbmR-2" target="OFLN6ch1py2yGaiHkbmR-7" edge="1">
          <mxGeometry relative="1" as="geometry" />
        </mxCell>
        <mxCell id="OFLN6ch1py2yGaiHkbmR-12" value="" style="edgeStyle=orthogonalEdgeStyle;rounded=0;orthogonalLoop=1;jettySize=auto;html=1;startArrow=none;startFill=0;endArrow=block;endFill=0;dashed=1;" parent="1" source="OFLN6ch1py2yGaiHkbmR-2" edge="1">
          <mxGeometry relative="1" as="geometry">
            <mxPoint x="55" y="450" as="targetPoint" />
          </mxGeometry>
        </mxCell>
        <mxCell id="OFLN6ch1py2yGaiHkbmR-2" value="CustomScannerRegister" style="rounded=0;whiteSpace=wrap;html=1;fillColor=#dae8fc;strokeColor=#6c8ebf;" parent="1" vertex="1">
          <mxGeometry x="-205" y="430" width="180" height="40" as="geometry" />
        </mxCell>
        <mxCell id="OFLN6ch1py2yGaiHkbmR-3" value="&lt;div&gt;@RpcScan&lt;/div&gt;" style="rounded=0;whiteSpace=wrap;html=1;strokeColor=#82b366;fillColor=#C5D6C4;" parent="1" vertex="1">
          <mxGeometry x="-165" y="340" width="100" height="40" as="geometry" />
        </mxCell>
        <mxCell id="OFLN6ch1py2yGaiHkbmR-4" value="" style="endArrow=classic;html=1;exitX=0.5;exitY=1;exitDx=0;exitDy=0;startArrow=diamondThin;startFill=1;endFill=1;" parent="1" source="OFLN6ch1py2yGaiHkbmR-3" target="OFLN6ch1py2yGaiHkbmR-2" edge="1">
          <mxGeometry width="50" height="50" relative="1" as="geometry">
            <mxPoint x="-10" y="420" as="sourcePoint" />
            <mxPoint x="40" y="370" as="targetPoint" />
          </mxGeometry>
        </mxCell>
        <mxCell id="OFLN6ch1py2yGaiHkbmR-14" value="" style="edgeStyle=orthogonalEdgeStyle;rounded=0;orthogonalLoop=1;jettySize=auto;html=1;dashed=1;startArrow=none;startFill=0;endArrow=block;endFill=0;" parent="1" source="OFLN6ch1py2yGaiHkbmR-7" edge="1">
          <mxGeometry relative="1" as="geometry">
            <mxPoint x="55" y="540" as="targetPoint" />
          </mxGeometry>
        </mxCell>
        <mxCell id="OFLN6ch1py2yGaiHkbmR-7" value="CustomScanner" style="whiteSpace=wrap;html=1;rounded=0;fillColor=#dae8fc;strokeColor=#6c8ebf;" parent="1" vertex="1">
          <mxGeometry x="-220" y="520" width="210" height="40" as="geometry" />
        </mxCell>
        <mxCell id="OFLN6ch1py2yGaiHkbmR-15" value="@import" style="text;html=1;align=center;verticalAlign=middle;resizable=0;points=[];autosize=1;" parent="1" vertex="1">
          <mxGeometry x="-120" y="400" width="60" height="20" as="geometry" />
        </mxCell>
        <mxCell id="OFLN6ch1py2yGaiHkbmR-17" value="SpringBeanPostProcessor" style="whiteSpace=wrap;html=1;rounded=0;strokeColor=#6c8ebf;fillColor=#dae8fc;" parent="1" vertex="1">
          <mxGeometry x="207.5" y="686.25" width="155" height="55" as="geometry" />
        </mxCell>
        <mxCell id="OFLN6ch1py2yGaiHkbmR-19" value="" style="endArrow=block;html=1;dashed=1;exitX=0;exitY=0.5;exitDx=0;exitDy=0;entryX=1;entryY=0.25;entryDx=0;entryDy=0;endFill=0;" parent="1" source="OFLN6ch1py2yGaiHkbmR-17" target="OFLN6ch1py2yGaiHkbmR-50" edge="1">
          <mxGeometry width="50" height="50" relative="1" as="geometry">
            <mxPoint x="-20" y="755" as="sourcePoint" />
            <mxPoint x="50" y="795" as="targetPoint" />
          </mxGeometry>
        </mxCell>
        <mxCell id="OFLN6ch1py2yGaiHkbmR-20" value="ServiceProvider" style="whiteSpace=wrap;html=1;rounded=0;strokeColor=#6c8ebf;fillColor=#dae8fc;" parent="1" vertex="1">
          <mxGeometry x="160" y="771.25" width="120" height="60" as="geometry" />
        </mxCell>
        <mxCell id="OFLN6ch1py2yGaiHkbmR-24" value="" style="endArrow=classic;startArrow=diamondThin;html=1;startFill=1;exitX=0.5;exitY=1;exitDx=0;exitDy=0;entryX=0.5;entryY=0;entryDx=0;entryDy=0;" parent="1" source="OFLN6ch1py2yGaiHkbmR-17" target="OFLN6ch1py2yGaiHkbmR-20" edge="1">
          <mxGeometry width="50" height="50" relative="1" as="geometry">
            <mxPoint x="-190" y="855" as="sourcePoint" />
            <mxPoint x="-140" y="805" as="targetPoint" />
          </mxGeometry>
        </mxCell>
        <mxCell id="OFLN6ch1py2yGaiHkbmR-26" value="@Component" style="text;html=1;strokeColor=none;fillColor=none;align=center;verticalAlign=middle;whiteSpace=wrap;rounded=0;" parent="1" vertex="1">
          <mxGeometry x="257.5" y="661.25" width="70" height="20" as="geometry" />
        </mxCell>
        <mxCell id="OFLN6ch1py2yGaiHkbmR-27" value="&lt;div&gt;Spring Part&lt;/div&gt;" style="text;html=1;align=center;verticalAlign=middle;resizable=0;points=[];autosize=1;" parent="1" vertex="1">
          <mxGeometry x="-25" y="270" width="80" height="20" as="geometry" />
        </mxCell>
        <mxCell id="OFLN6ch1py2yGaiHkbmR-29" value="Rpc Core Clinet Part" style="text;html=1;align=center;verticalAlign=middle;resizable=0;points=[];autosize=1;" parent="1" vertex="1">
          <mxGeometry x="850" y="240" width="130" height="20" as="geometry" />
        </mxCell>
        <mxCell id="OFLN6ch1py2yGaiHkbmR-31" value="Rpc Core Server Part" style="text;html=1;align=center;verticalAlign=middle;resizable=0;points=[];autosize=1;" parent="1" vertex="1">
          <mxGeometry x="1682.5" y="280" width="130" height="20" as="geometry" />
        </mxCell>
        <mxCell id="OFLN6ch1py2yGaiHkbmR-34" value="" style="edgeStyle=orthogonalEdgeStyle;rounded=0;orthogonalLoop=1;jettySize=auto;html=1;startArrow=none;startFill=0;endArrow=block;endFill=0;dashed=1;entryX=0;entryY=0.5;entryDx=0;entryDy=0;" parent="1" source="OFLN6ch1py2yGaiHkbmR-32" target="OFLN6ch1py2yGaiHkbmR-54" edge="1">
          <mxGeometry relative="1" as="geometry">
            <mxPoint x="889.9999999999995" y="400" as="targetPoint" />
          </mxGeometry>
        </mxCell>
        <mxCell id="OFLN6ch1py2yGaiHkbmR-42" value="" style="edgeStyle=orthogonalEdgeStyle;rounded=0;orthogonalLoop=1;jettySize=auto;html=1;startArrow=diamondThin;startFill=1;endArrow=classic;endFill=1;" parent="1" source="OFLN6ch1py2yGaiHkbmR-32" target="OFLN6ch1py2yGaiHkbmR-41" edge="1">
          <mxGeometry relative="1" as="geometry" />
        </mxCell>
        <mxCell id="OFLN6ch1py2yGaiHkbmR-32" value="SocketRpcClient" style="rounded=0;whiteSpace=wrap;html=1;fillColor=#dae8fc;strokeColor=#6c8ebf;" parent="1" vertex="1">
          <mxGeometry x="690" y="520" width="120" height="60" as="geometry" />
        </mxCell>
        <mxCell id="OFLN6ch1py2yGaiHkbmR-41" value="ZkServiceDiscovery" style="whiteSpace=wrap;html=1;rounded=0;strokeColor=#6c8ebf;fillColor=#dae8fc;" parent="1" vertex="1">
          <mxGeometry x="690" y="400" width="120" height="40" as="geometry" />
        </mxCell>
        <mxCell id="OFLN6ch1py2yGaiHkbmR-44" value="ClassPathBeanDefinitionScanner" style="swimlane;fontStyle=1;childLayout=stackLayout;horizontal=1;startSize=40;fillColor=#d5e8d4;horizontalStack=0;resizeParent=1;resizeParentMax=0;resizeLast=0;collapsible=1;marginBottom=0;strokeWidth=1;strokeColor=#82b366;" parent="1" vertex="1">
          <mxGeometry x="55" y="510" width="210" height="70" as="geometry">
            <mxRectangle x="-320" y="390" width="50" height="40" as="alternateBounds" />
          </mxGeometry>
        </mxCell>
        <mxCell id="OFLN6ch1py2yGaiHkbmR-46" value="scan(string ...basePackge)" style="text;strokeColor=#82b366;fillColor=#d5e8d4;align=left;verticalAlign=top;spacingLeft=4;spacingRight=4;overflow=hidden;rotatable=0;points=[[0,0.5],[1,0.5]];portConstraint=eastwest;" parent="OFLN6ch1py2yGaiHkbmR-44" vertex="1">
          <mxGeometry y="40" width="210" height="30" as="geometry" />
        </mxCell>
        <mxCell id="OFLN6ch1py2yGaiHkbmR-48" value="ImportBeanDefinitionRegistrar" style="swimlane;fontStyle=1;childLayout=stackLayout;horizontal=1;startSize=40;fillColor=#d5e8d4;horizontalStack=0;resizeParent=1;resizeParentMax=0;resizeLast=0;collapsible=1;marginBottom=0;strokeWidth=1;strokeColor=#82b366;" parent="1" vertex="1">
          <mxGeometry x="55" y="400" width="250" height="100" as="geometry">
            <mxRectangle x="-320" y="390" width="50" height="40" as="alternateBounds" />
          </mxGeometry>
        </mxCell>
        <mxCell id="OFLN6ch1py2yGaiHkbmR-49" value="registerBeanDefinitions(AnnotationMetadata, &#xa;&#xa;BeanDefinitionRegistry)" style="text;strokeColor=#82b366;fillColor=#d5e8d4;align=left;verticalAlign=top;spacingLeft=4;spacingRight=4;overflow=hidden;rotatable=0;points=[[0,0.5],[1,0.5]];portConstraint=eastwest;" parent="OFLN6ch1py2yGaiHkbmR-48" vertex="1">
          <mxGeometry y="40" width="250" height="60" as="geometry" />
        </mxCell>
        <mxCell id="OFLN6ch1py2yGaiHkbmR-50" value="BeanPostProcessor" style="swimlane;fontStyle=1;childLayout=stackLayout;horizontal=1;startSize=40;fillColor=#d5e8d4;horizontalStack=0;resizeParent=1;resizeParentMax=0;resizeLast=0;collapsible=1;marginBottom=0;strokeWidth=1;strokeColor=#82b366;" parent="1" vertex="1">
          <mxGeometry x="-252.5" y="681.25" width="360" height="150" as="geometry">
            <mxRectangle x="-690" y="645" width="250" height="40" as="alternateBounds" />
          </mxGeometry>
        </mxCell>
        <mxCell id="OFLN6ch1py2yGaiHkbmR-51" value="postProcessBeforeInitialization(Object bean, String beanName,)&#xa;publish services annotated with @RpcService by ServiceProvider" style="text;strokeColor=#82b366;fillColor=#d5e8d4;align=left;verticalAlign=top;spacingLeft=4;spacingRight=4;overflow=hidden;rotatable=0;points=[[0,0.5],[1,0.5]];portConstraint=eastwest;" parent="OFLN6ch1py2yGaiHkbmR-50" vertex="1">
          <mxGeometry y="40" width="360" height="50" as="geometry" />
        </mxCell>
        <mxCell id="OFLN6ch1py2yGaiHkbmR-53" value="postProcessBeforeInitialization(Object bean, String beanName,) &#xa;&#xa;set the fields annotated with @RpcReference with proxy object" style="text;strokeColor=#82b366;fillColor=#d5e8d4;align=left;verticalAlign=top;spacingLeft=4;spacingRight=4;overflow=hidden;rotatable=0;points=[[0,0.5],[1,0.5]];portConstraint=eastwest;" parent="OFLN6ch1py2yGaiHkbmR-50" vertex="1">
          <mxGeometry y="90" width="360" height="60" as="geometry" />
        </mxCell>
        <mxCell id="OFLN6ch1py2yGaiHkbmR-54" value="RpcRequestTransport" style="swimlane;fontStyle=1;childLayout=stackLayout;horizontal=1;startSize=26;fillColor=#d5e8d4;horizontalStack=0;resizeParent=1;resizeParentMax=0;resizeLast=0;collapsible=1;marginBottom=0;strokeWidth=1;strokeColor=#82b366;" parent="1" vertex="1">
          <mxGeometry x="900" y="524" width="280" height="52" as="geometry" />
        </mxCell>
        <mxCell id="OFLN6ch1py2yGaiHkbmR-55" value="Object response = sendRequest(RpcRequest)" style="text;strokeColor=#82b366;fillColor=#d5e8d4;align=left;verticalAlign=top;spacingLeft=4;spacingRight=4;overflow=hidden;rotatable=0;points=[[0,0.5],[1,0.5]];portConstraint=eastwest;" parent="OFLN6ch1py2yGaiHkbmR-54" vertex="1">
          <mxGeometry y="26" width="280" height="26" as="geometry" />
        </mxCell>
        <mxCell id="OFLN6ch1py2yGaiHkbmR-58" value="ServiceDiscory" style="swimlane;fontStyle=1;childLayout=stackLayout;horizontal=1;startSize=26;fillColor=#d5e8d4;horizontalStack=0;resizeParent=1;resizeParentMax=0;resizeLast=0;collapsible=1;marginBottom=0;strokeWidth=1;strokeColor=#82b366;" parent="1" vertex="1">
          <mxGeometry x="875" y="394" width="325" height="52" as="geometry" />
        </mxCell>
        <mxCell id="OFLN6ch1py2yGaiHkbmR-61" value="InetSocketAddress = lookupService(String serviceName)" style="text;strokeColor=#82b366;fillColor=#d5e8d4;align=left;verticalAlign=top;spacingLeft=4;spacingRight=4;overflow=hidden;rotatable=0;points=[[0,0.5],[1,0.5]];portConstraint=eastwest;" parent="OFLN6ch1py2yGaiHkbmR-58" vertex="1">
          <mxGeometry y="26" width="325" height="26" as="geometry" />
        </mxCell>
        <mxCell id="OFLN6ch1py2yGaiHkbmR-62" value="" style="endArrow=classic;html=1;dashed=1;exitX=1;exitY=0.5;exitDx=0;exitDy=0;entryX=0;entryY=0.5;entryDx=0;entryDy=0;" parent="1" source="OFLN6ch1py2yGaiHkbmR-41" target="OFLN6ch1py2yGaiHkbmR-58" edge="1">
          <mxGeometry width="50" height="50" relative="1" as="geometry">
            <mxPoint x="940" y="480" as="sourcePoint" />
            <mxPoint x="990" y="430" as="targetPoint" />
          </mxGeometry>
        </mxCell>
        <mxCell id="OFLN6ch1py2yGaiHkbmR-64" value="SpringSocketRpcServer" style="rounded=0;whiteSpace=wrap;html=1;strokeWidth=1;fillColor=#dae8fc;strokeColor=#6c8ebf;" parent="1" vertex="1">
          <mxGeometry x="1540" y="476" width="145" height="60" as="geometry" />
        </mxCell>
        <mxCell id="OFLN6ch1py2yGaiHkbmR-70" value="" style="endArrow=classic;html=1;exitX=0.5;exitY=1;exitDx=0;exitDy=0;entryX=0.5;entryY=0;entryDx=0;entryDy=0;endFill=1;startArrow=diamondThin;startFill=1;" parent="1" source="OFLN6ch1py2yGaiHkbmR-64" target="OFLN6ch1py2yGaiHkbmR-93" edge="1">
          <mxGeometry width="50" height="50" relative="1" as="geometry">
            <mxPoint x="1587.5" y="580" as="sourcePoint" />
            <mxPoint x="1690" y="624" as="targetPoint" />
          </mxGeometry>
        </mxCell>
        <mxCell id="OFLN6ch1py2yGaiHkbmR-71" value="" style="endArrow=classic;html=1;exitX=0.5;exitY=0;exitDx=0;exitDy=0;endFill=1;startArrow=diamondThin;startFill=1;entryX=0.5;entryY=1;entryDx=0;entryDy=0;" parent="1" source="OFLN6ch1py2yGaiHkbmR-64" target="OFLN6ch1py2yGaiHkbmR-98" edge="1">
          <mxGeometry width="50" height="50" relative="1" as="geometry">
            <mxPoint x="1612.5" y="536" as="sourcePoint" />
            <mxPoint x="1612.5" y="420" as="targetPoint" />
          </mxGeometry>
        </mxCell>
        <mxCell id="OFLN6ch1py2yGaiHkbmR-74" value="" style="edgeStyle=orthogonalEdgeStyle;rounded=0;orthogonalLoop=1;jettySize=auto;html=1;startArrow=none;startFill=0;endArrow=block;endFill=0;dashed=1;" parent="1" source="OFLN6ch1py2yGaiHkbmR-72" target="OFLN6ch1py2yGaiHkbmR-73" edge="1">
          <mxGeometry relative="1" as="geometry" />
        </mxCell>
        <mxCell id="OFLN6ch1py2yGaiHkbmR-72" value="SpringSocketRpcRequestHandlerRunnable" style="rounded=0;whiteSpace=wrap;html=1;strokeWidth=1;fillColor=#dae8fc;strokeColor=#6c8ebf;" parent="1" vertex="1">
          <mxGeometry x="1740" y="475" width="290" height="60" as="geometry" />
        </mxCell>
        <mxCell id="OFLN6ch1py2yGaiHkbmR-73" value="&lt;b&gt;Runnable&lt;/b&gt;" style="whiteSpace=wrap;html=1;rounded=0;strokeColor=#82b366;strokeWidth=1;fillColor=#d5e8d4;" parent="1" vertex="1">
          <mxGeometry x="2070" y="477.5" width="90" height="55" as="geometry" />
        </mxCell>
        <mxCell id="OFLN6ch1py2yGaiHkbmR-75" value="Socket" style="whiteSpace=wrap;html=1;rounded=0;strokeColor=#6c8ebf;strokeWidth=1;fillColor=#dae8fc;" parent="1" vertex="1">
          <mxGeometry x="1825" y="390" width="120" height="50" as="geometry" />
        </mxCell>
        <mxCell id="OFLN6ch1py2yGaiHkbmR-80" value="" style="edgeStyle=orthogonalEdgeStyle;rounded=0;orthogonalLoop=1;jettySize=auto;html=1;dashed=1;startArrow=none;startFill=0;endArrow=block;endFill=0;entryX=0;entryY=0.5;entryDx=0;entryDy=0;exitX=1;exitY=0.5;exitDx=0;exitDy=0;" parent="1" source="OFLN6ch1py2yGaiHkbmR-76" target="OFLN6ch1py2yGaiHkbmR-84" edge="1">
          <mxGeometry relative="1" as="geometry">
            <mxPoint x="2202.5" y="625" as="targetPoint" />
          </mxGeometry>
        </mxCell>
        <mxCell id="OFLN6ch1py2yGaiHkbmR-76" value="SpringRpcRequestHandler" style="whiteSpace=wrap;html=1;rounded=0;strokeColor=#6c8ebf;strokeWidth=1;fillColor=#dae8fc;" parent="1" vertex="1">
          <mxGeometry x="1740" y="580" width="165" height="60" as="geometry" />
        </mxCell>
        <mxCell id="OFLN6ch1py2yGaiHkbmR-77" value="" style="endArrow=classic;html=1;exitX=0.5;exitY=0;exitDx=0;exitDy=0;entryX=0.5;entryY=1;entryDx=0;entryDy=0;endFill=1;startArrow=diamondThin;startFill=1;" parent="1" source="OFLN6ch1py2yGaiHkbmR-72" target="OFLN6ch1py2yGaiHkbmR-75" edge="1">
          <mxGeometry width="50" height="50" relative="1" as="geometry">
            <mxPoint x="1912.5" y="571" as="sourcePoint" />
            <mxPoint x="1937.5" y="565" as="targetPoint" />
          </mxGeometry>
        </mxCell>
        <mxCell id="OFLN6ch1py2yGaiHkbmR-78" value="" style="endArrow=classic;html=1;exitX=0.5;exitY=1;exitDx=0;exitDy=0;entryX=0.5;entryY=0;entryDx=0;entryDy=0;endFill=1;startArrow=diamondThin;startFill=1;" parent="1" source="OFLN6ch1py2yGaiHkbmR-72" target="OFLN6ch1py2yGaiHkbmR-76" edge="1">
          <mxGeometry width="50" height="50" relative="1" as="geometry">
            <mxPoint x="1912.5" y="571" as="sourcePoint" />
            <mxPoint x="1810" y="635" as="targetPoint" />
          </mxGeometry>
        </mxCell>
        <mxCell id="OFLN6ch1py2yGaiHkbmR-84" value="RequestHandler" style="swimlane;fontStyle=1;childLayout=stackLayout;horizontal=1;startSize=26;fillColor=#d5e8d4;horizontalStack=0;resizeParent=1;resizeParentMax=0;resizeLast=0;collapsible=1;marginBottom=0;strokeWidth=1;strokeColor=#82b366;" parent="1" vertex="1">
          <mxGeometry x="1970" y="584" width="190" height="52" as="geometry" />
        </mxCell>
        <mxCell id="OFLN6ch1py2yGaiHkbmR-85" value="Object = handle(RpcRequest)" style="text;strokeColor=#82b366;fillColor=#d5e8d4;align=left;verticalAlign=top;spacingLeft=4;spacingRight=4;overflow=hidden;rotatable=0;points=[[0,0.5],[1,0.5]];portConstraint=eastwest;" parent="OFLN6ch1py2yGaiHkbmR-84" vertex="1">
          <mxGeometry y="26" width="190" height="26" as="geometry" />
        </mxCell>
        <mxCell id="OFLN6ch1py2yGaiHkbmR-93" value="ServiceProvider" style="swimlane;fontStyle=1;childLayout=stackLayout;horizontal=1;startSize=40;fillColor=#d5e8d4;horizontalStack=0;resizeParent=1;resizeParentMax=0;resizeLast=0;collapsible=1;marginBottom=0;strokeWidth=1;strokeColor=#82b366;" parent="1" vertex="1">
          <mxGeometry x="1542.5" y="580" width="140" height="118" as="geometry" />
        </mxCell>
        <mxCell id="OFLN6ch1py2yGaiHkbmR-94" value="addService" style="text;strokeColor=#82b366;fillColor=#d5e8d4;align=left;verticalAlign=top;spacingLeft=4;spacingRight=4;overflow=hidden;rotatable=0;points=[[0,0.5],[1,0.5]];portConstraint=eastwest;" parent="OFLN6ch1py2yGaiHkbmR-93" vertex="1">
          <mxGeometry y="40" width="140" height="26" as="geometry" />
        </mxCell>
        <mxCell id="OFLN6ch1py2yGaiHkbmR-95" value="getService" style="text;strokeColor=#82b366;fillColor=#d5e8d4;align=left;verticalAlign=top;spacingLeft=4;spacingRight=4;overflow=hidden;rotatable=0;points=[[0,0.5],[1,0.5]];portConstraint=eastwest;" parent="OFLN6ch1py2yGaiHkbmR-93" vertex="1">
          <mxGeometry y="66" width="140" height="26" as="geometry" />
        </mxCell>
        <mxCell id="OFLN6ch1py2yGaiHkbmR-96" value="publishService" style="text;strokeColor=#82b366;fillColor=#d5e8d4;align=left;verticalAlign=top;spacingLeft=4;spacingRight=4;overflow=hidden;rotatable=0;points=[[0,0.5],[1,0.5]];portConstraint=eastwest;" parent="OFLN6ch1py2yGaiHkbmR-93" vertex="1">
          <mxGeometry y="92" width="140" height="26" as="geometry" />
        </mxCell>
        <mxCell id="OFLN6ch1py2yGaiHkbmR-97" value="" style="endArrow=classic;html=1;exitX=0;exitY=0.5;exitDx=0;exitDy=0;entryX=1;entryY=0.25;entryDx=0;entryDy=0;endFill=1;startArrow=diamondThin;startFill=1;" parent="1" source="OFLN6ch1py2yGaiHkbmR-76" target="OFLN6ch1py2yGaiHkbmR-93" edge="1">
          <mxGeometry width="50" height="50" relative="1" as="geometry">
            <mxPoint x="1542.5" y="536.0000000000001" as="sourcePoint" />
            <mxPoint x="1670" y="690.0000000000001" as="targetPoint" />
          </mxGeometry>
        </mxCell>
        <mxCell id="OFLN6ch1py2yGaiHkbmR-98" value="ExecutorService" style="swimlane;fontStyle=1;childLayout=stackLayout;horizontal=1;startSize=22;fillColor=#d5e8d4;horizontalStack=0;resizeParent=1;resizeParentMax=0;resizeLast=0;collapsible=1;marginBottom=0;strokeWidth=1;strokeColor=#82b366;" parent="1" vertex="1">
          <mxGeometry x="1542.5" y="390" width="140" height="48" as="geometry" />
        </mxCell>
        <mxCell id="OFLN6ch1py2yGaiHkbmR-99" value="submit(Runnable)" style="text;strokeColor=#82b366;fillColor=#d5e8d4;align=left;verticalAlign=top;spacingLeft=4;spacingRight=4;overflow=hidden;rotatable=0;points=[[0,0.5],[1,0.5]];portConstraint=eastwest;" parent="OFLN6ch1py2yGaiHkbmR-98" vertex="1">
          <mxGeometry y="22" width="140" height="26" as="geometry" />
        </mxCell>
        <mxCell id="OFLN6ch1py2yGaiHkbmR-112" value="" style="endArrow=classic;startArrow=diamondThin;html=1;startFill=1;exitX=0.75;exitY=1;exitDx=0;exitDy=0;entryX=0.5;entryY=0;entryDx=0;entryDy=0;" parent="1" source="OFLN6ch1py2yGaiHkbmR-17" target="OFLN6ch1py2yGaiHkbmR-117" edge="1">
          <mxGeometry width="50" height="50" relative="1" as="geometry">
            <mxPoint x="285" y="741.25" as="sourcePoint" />
            <mxPoint x="520" y="690" as="targetPoint" />
          </mxGeometry>
        </mxCell>
        <mxCell id="OFLN6ch1py2yGaiHkbmR-116" value="" style="edgeStyle=orthogonalEdgeStyle;rounded=0;orthogonalLoop=1;jettySize=auto;html=1;startArrow=none;startFill=0;endArrow=block;endFill=0;dashed=1;entryX=1.006;entryY=0.082;entryDx=0;entryDy=0;entryPerimeter=0;" parent="1" source="OFLN6ch1py2yGaiHkbmR-117" target="OFLN6ch1py2yGaiHkbmR-119" edge="1">
          <mxGeometry relative="1" as="geometry">
            <mxPoint x="489.99999999999955" y="740" as="targetPoint" />
          </mxGeometry>
        </mxCell>
        <mxCell id="OFLN6ch1py2yGaiHkbmR-117" value="SocketRpcClient" style="rounded=0;whiteSpace=wrap;html=1;fillColor=#dae8fc;strokeColor=#6c8ebf;" parent="1" vertex="1">
          <mxGeometry x="265" y="856" width="120" height="60" as="geometry" />
        </mxCell>
        <mxCell id="OFLN6ch1py2yGaiHkbmR-118" value="RpcRequestTransport" style="swimlane;fontStyle=1;childLayout=stackLayout;horizontal=1;startSize=26;fillColor=#d5e8d4;horizontalStack=0;resizeParent=1;resizeParentMax=0;resizeLast=0;collapsible=1;marginBottom=0;strokeWidth=1;strokeColor=#82b366;" parent="1" vertex="1">
          <mxGeometry x="-100" y="860" width="280" height="52" as="geometry" />
        </mxCell>
        <mxCell id="OFLN6ch1py2yGaiHkbmR-119" value="Object response = sendRequest(RpcRequest)" style="text;strokeColor=#82b366;fillColor=#d5e8d4;align=left;verticalAlign=top;spacingLeft=4;spacingRight=4;overflow=hidden;rotatable=0;points=[[0,0.5],[1,0.5]];portConstraint=eastwest;" parent="OFLN6ch1py2yGaiHkbmR-118" vertex="1">
          <mxGeometry y="26" width="280" height="26" as="geometry" />
        </mxCell>
        <mxCell id="OFLN6ch1py2yGaiHkbmR-122" value="SpringBeanPostProcessor" style="whiteSpace=wrap;html=1;rounded=0;strokeColor=#6c8ebf;fillColor=#dae8fc;" parent="1" vertex="1">
          <mxGeometry x="667.5" y="841.25" width="165" height="55" as="geometry" />
        </mxCell>
        <mxCell id="OFLN6ch1py2yGaiHkbmR-124" value="BeanPostProcessor" style="swimlane;fontStyle=1;childLayout=stackLayout;horizontal=1;startSize=40;fillColor=#d5e8d4;horizontalStack=0;resizeParent=1;resizeParentMax=0;resizeLast=0;collapsible=1;marginBottom=0;strokeWidth=1;strokeColor=#82b366;" parent="1" vertex="1">
          <mxGeometry x="850" y="831.25" width="360" height="150" as="geometry">
            <mxRectangle x="-690" y="645" width="250" height="40" as="alternateBounds" />
          </mxGeometry>
        </mxCell>
        <mxCell id="OFLN6ch1py2yGaiHkbmR-125" value="postProcessBeforeInitialization(Object bean, String beanName,)&#xa;publish services annotated with @RpcService by ServiceProvider" style="text;strokeColor=#82b366;fillColor=#d5e8d4;align=left;verticalAlign=top;spacingLeft=4;spacingRight=4;overflow=hidden;rotatable=0;points=[[0,0.5],[1,0.5]];portConstraint=eastwest;" parent="OFLN6ch1py2yGaiHkbmR-124" vertex="1">
          <mxGeometry y="40" width="360" height="50" as="geometry" />
        </mxCell>
        <mxCell id="OFLN6ch1py2yGaiHkbmR-126" value="postProcessBeforeInitialization(Object bean, String beanName,) &#xa;&#xa;set the fields annotated with @RpcReference with proxy object" style="text;strokeColor=#82b366;fillColor=#d5e8d4;align=left;verticalAlign=top;spacingLeft=4;spacingRight=4;overflow=hidden;rotatable=0;points=[[0,0.5],[1,0.5]];portConstraint=eastwest;" parent="OFLN6ch1py2yGaiHkbmR-124" vertex="1">
          <mxGeometry y="90" width="360" height="60" as="geometry" />
        </mxCell>
        <mxCell id="OFLN6ch1py2yGaiHkbmR-127" value="" style="edgeStyle=orthogonalEdgeStyle;rounded=0;orthogonalLoop=1;jettySize=auto;html=1;startArrow=none;startFill=0;endArrow=block;endFill=0;dashed=1;entryX=-0.006;entryY=-0.045;entryDx=0;entryDy=0;exitX=1;exitY=0.5;exitDx=0;exitDy=0;entryPerimeter=0;" parent="1" source="OFLN6ch1py2yGaiHkbmR-122" target="OFLN6ch1py2yGaiHkbmR-125" edge="1">
          <mxGeometry relative="1" as="geometry">
            <mxPoint x="820" y="730" as="sourcePoint" />
            <mxPoint x="910" y="730" as="targetPoint" />
          </mxGeometry>
        </mxCell>
        <mxCell id="OFLN6ch1py2yGaiHkbmR-128" value="" style="endArrow=classic;startArrow=diamondThin;html=1;startFill=1;exitX=0.5;exitY=0;exitDx=0;exitDy=0;entryX=0.5;entryY=1;entryDx=0;entryDy=0;" parent="1" source="OFLN6ch1py2yGaiHkbmR-122" target="OFLN6ch1py2yGaiHkbmR-32" edge="1">
          <mxGeometry width="50" height="50" relative="1" as="geometry">
            <mxPoint x="731.88" y="686.25" as="sourcePoint" />
            <mxPoint x="733.13" y="800.9999999999998" as="targetPoint" />
          </mxGeometry>
        </mxCell>
        <mxCell id="OFLN6ch1py2yGaiHkbmR-137" value="RpcClientProxy" style="rounded=0;whiteSpace=wrap;html=1;strokeWidth=1;fillColor=#dae8fc;strokeColor=#6c8ebf;" parent="1" vertex="1">
          <mxGeometry x="990" y="686.25" width="120" height="60" as="geometry" />
        </mxCell>
        <mxCell id="OFLN6ch1py2yGaiHkbmR-139" value="InvocationHandler" style="swimlane;fontStyle=1;childLayout=stackLayout;horizontal=1;startSize=26;fillColor=#d5e8d4;horizontalStack=0;resizeParent=1;resizeParentMax=0;resizeLast=0;collapsible=1;marginBottom=0;strokeWidth=1;strokeColor=#82b366;" parent="1" vertex="1">
          <mxGeometry x="900" y="593" width="300" height="52" as="geometry" />
        </mxCell>
        <mxCell id="OFLN6ch1py2yGaiHkbmR-140" value="invoke(Object proxy, Method method, Object[] args)" style="text;strokeColor=#82b366;fillColor=#d5e8d4;align=left;verticalAlign=top;spacingLeft=4;spacingRight=4;overflow=hidden;rotatable=0;points=[[0,0.5],[1,0.5]];portConstraint=eastwest;" parent="OFLN6ch1py2yGaiHkbmR-139" vertex="1">
          <mxGeometry y="26" width="300" height="26" as="geometry" />
        </mxCell>
        <mxCell id="OFLN6ch1py2yGaiHkbmR-143" value="" style="endArrow=block;html=1;dashed=1;endFill=0;exitX=0.5;exitY=0;exitDx=0;exitDy=0;entryX=0.5;entryY=1;entryDx=0;entryDy=0;" parent="1" source="OFLN6ch1py2yGaiHkbmR-137" target="OFLN6ch1py2yGaiHkbmR-139" edge="1">
          <mxGeometry width="50" height="50" relative="1" as="geometry">
            <mxPoint x="880" y="730" as="sourcePoint" />
            <mxPoint x="970" y="650" as="targetPoint" />
          </mxGeometry>
        </mxCell>
        <mxCell id="OFLN6ch1py2yGaiHkbmR-144" value="" style="endArrow=classic;html=1;startArrow=diamondThin;startFill=1;exitX=0;exitY=0.5;exitDx=0;exitDy=0;entryX=0.5;entryY=1;entryDx=0;entryDy=0;" parent="1" source="OFLN6ch1py2yGaiHkbmR-137" target="OFLN6ch1py2yGaiHkbmR-32" edge="1">
          <mxGeometry width="50" height="50" relative="1" as="geometry">
            <mxPoint x="880" y="730" as="sourcePoint" />
            <mxPoint x="930" y="680" as="targetPoint" />
          </mxGeometry>
        </mxCell>
        <mxCell id="OFLN6ch1py2yGaiHkbmR-145" value="RpcServiceProperties" style="rounded=0;whiteSpace=wrap;html=1;strokeWidth=1;fillColor=#dae8fc;strokeColor=#6c8ebf;" parent="1" vertex="1">
          <mxGeometry x="810" y="711.25" width="120" height="60" as="geometry" />
        </mxCell>
        <mxCell id="OFLN6ch1py2yGaiHkbmR-146" value="" style="endArrow=classic;html=1;startArrow=diamondThin;startFill=1;exitX=0;exitY=0.5;exitDx=0;exitDy=0;entryX=1;entryY=0.5;entryDx=0;entryDy=0;" parent="1" source="OFLN6ch1py2yGaiHkbmR-137" target="OFLN6ch1py2yGaiHkbmR-145" edge="1">
          <mxGeometry width="50" height="50" relative="1" as="geometry">
            <mxPoint x="920" y="740" as="sourcePoint" />
            <mxPoint x="750" y="580" as="targetPoint" />
          </mxGeometry>
        </mxCell>
        <mxCell id="OFLN6ch1py2yGaiHkbmR-149" value="" style="endArrow=classic;html=1;exitX=0.5;exitY=0;exitDx=0;exitDy=0;entryX=0.324;entryY=1.018;entryDx=0;entryDy=0;entryPerimeter=0;" parent="1" source="OFLN6ch1py2yGaiHkbmR-124" target="OFLN6ch1py2yGaiHkbmR-137" edge="1">
          <mxGeometry width="50" height="50" relative="1" as="geometry">
            <mxPoint x="940" y="920" as="sourcePoint" />
            <mxPoint x="950" y="754" as="targetPoint" />
          </mxGeometry>
        </mxCell>
        <mxCell id="OFLN6ch1py2yGaiHkbmR-148" value="" style="endArrow=classic;html=1;exitX=1;exitY=0.5;exitDx=0;exitDy=0;entryX=0;entryY=0.5;entryDx=0;entryDy=0;" parent="1" source="OFLN6ch1py2yGaiHkbmR-137" target="OFLN6ch1py2yGaiHkbmR-159" edge="1">
          <mxGeometry width="50" height="50" relative="1" as="geometry">
            <mxPoint x="880" y="840" as="sourcePoint" />
            <mxPoint x="1085" y="816" as="targetPoint" />
          </mxGeometry>
        </mxCell>
        <mxCell id="OFLN6ch1py2yGaiHkbmR-155" value="RpcServiceImpl" style="rounded=0;whiteSpace=wrap;html=1;strokeWidth=1;fillColor=#dae8fc;strokeColor=#6c8ebf;" parent="1" vertex="1">
          <mxGeometry x="1557.5" y="806.25" width="110" height="40" as="geometry" />
        </mxCell>
        <mxCell id="OFLN6ch1py2yGaiHkbmR-156" value="" style="endArrow=block;html=1;dashed=1;endFill=0;exitX=0.5;exitY=1;exitDx=0;exitDy=0;entryX=0.5;entryY=0;entryDx=0;entryDy=0;" parent="1" source="OFLN6ch1py2yGaiHkbmR-155" target="OFLN6ch1py2yGaiHkbmR-157" edge="1">
          <mxGeometry width="50" height="50" relative="1" as="geometry">
            <mxPoint x="1017.5" y="770.25" as="sourcePoint" />
            <mxPoint x="1002.5" y="900.25" as="targetPoint" />
          </mxGeometry>
        </mxCell>
        <mxCell id="OFLN6ch1py2yGaiHkbmR-157" value="&lt;b&gt;RpcService&lt;/b&gt;" style="rounded=0;whiteSpace=wrap;html=1;strokeWidth=1;fillColor=#d5e8d4;strokeColor=#82b366;" parent="1" vertex="1">
          <mxGeometry x="1561.25" y="866.25" width="102.5" height="40" as="geometry" />
        </mxCell>
        <mxCell id="OFLN6ch1py2yGaiHkbmR-159" value="proxy of Service" style="rounded=0;whiteSpace=wrap;html=1;strokeWidth=1;fillColor=#dae8fc;strokeColor=#6c8ebf;" parent="1" vertex="1">
          <mxGeometry x="1130" y="696.25" width="80" height="40" as="geometry" />
        </mxCell>
        <mxCell id="OFLN6ch1py2yGaiHkbmR-162" value="" style="endArrow=classic;html=1;entryX=1;entryY=0.5;entryDx=0;entryDy=0;exitX=0;exitY=0.5;exitDx=0;exitDy=0;shape=flexArrow;" parent="1" source="OFLN6ch1py2yGaiHkbmR-155" target="OFLN6ch1py2yGaiHkbmR-159" edge="1">
          <mxGeometry width="50" height="50" relative="1" as="geometry">
            <mxPoint x="1560" y="710" as="sourcePoint" />
            <mxPoint x="1250" y="620" as="targetPoint" />
          </mxGeometry>
        </mxCell>
        <mxCell id="OFLN6ch1py2yGaiHkbmR-175" value="socket return" style="edgeLabel;html=1;align=center;verticalAlign=middle;resizable=0;points=[];" parent="OFLN6ch1py2yGaiHkbmR-162" vertex="1" connectable="0">
          <mxGeometry x="-0.1779" y="-2" relative="1" as="geometry">
            <mxPoint as="offset" />
          </mxGeometry>
        </mxCell>
        <mxCell id="OFLN6ch1py2yGaiHkbmR-167" value="" style="endArrow=classic;html=1;exitX=0.5;exitY=1;exitDx=0;exitDy=0;entryX=0.5;entryY=0;entryDx=0;entryDy=0;" parent="1" source="OFLN6ch1py2yGaiHkbmR-93" target="OFLN6ch1py2yGaiHkbmR-155" edge="1">
          <mxGeometry relative="1" as="geometry">
            <mxPoint x="1620" y="739.41" as="sourcePoint" />
            <mxPoint x="1720" y="739.41" as="targetPoint" />
          </mxGeometry>
        </mxCell>
        <mxCell id="OFLN6ch1py2yGaiHkbmR-168" value="&lt;div&gt;publichService&lt;/div&gt;&lt;div&gt;by&lt;br&gt;&lt;/div&gt;&lt;div&gt;BeanPostProcessor&lt;/div&gt;&lt;div&gt;&lt;br&gt;&lt;/div&gt;" style="edgeLabel;resizable=0;html=1;align=center;verticalAlign=middle;" parent="OFLN6ch1py2yGaiHkbmR-167" connectable="0" vertex="1">
          <mxGeometry relative="1" as="geometry" />
        </mxCell>
        <mxCell id="OFLN6ch1py2yGaiHkbmR-169" value="" style="endArrow=classic;html=1;exitX=0.75;exitY=0;exitDx=0;exitDy=0;shape=flexArrow;entryX=0.25;entryY=0;entryDx=0;entryDy=0;" parent="1" source="OFLN6ch1py2yGaiHkbmR-64" target="OFLN6ch1py2yGaiHkbmR-72" edge="1">
          <mxGeometry width="50" height="50" relative="1" as="geometry">
            <mxPoint x="1820" y="650" as="sourcePoint" />
            <mxPoint x="1740" y="506" as="targetPoint" />
            <Array as="points">
              <mxPoint x="1660" y="420" />
            </Array>
          </mxGeometry>
        </mxCell>
        <mxCell id="OFLN6ch1py2yGaiHkbmR-171" value="" style="endArrow=classic;html=1;exitX=0.25;exitY=1;exitDx=0;exitDy=0;entryX=0.25;entryY=0;entryDx=0;entryDy=0;shape=arrow;" parent="1" source="OFLN6ch1py2yGaiHkbmR-72" target="OFLN6ch1py2yGaiHkbmR-76" edge="1">
          <mxGeometry width="50" height="50" relative="1" as="geometry">
            <mxPoint x="1820" y="650" as="sourcePoint" />
            <mxPoint x="1870" y="600" as="targetPoint" />
          </mxGeometry>
        </mxCell>
        <mxCell id="OFLN6ch1py2yGaiHkbmR-173" value="" style="endArrow=classic;html=1;exitX=0;exitY=0.75;exitDx=0;exitDy=0;entryX=1;entryY=0;entryDx=0;entryDy=0;shape=flexArrow;" parent="1" source="OFLN6ch1py2yGaiHkbmR-76" target="OFLN6ch1py2yGaiHkbmR-155" edge="1">
          <mxGeometry relative="1" as="geometry">
            <mxPoint x="1772.5" y="688.8199999999999" as="sourcePoint" />
            <mxPoint x="1872.5" y="688.8199999999999" as="targetPoint" />
            <Array as="points">
              <mxPoint x="1670" y="670" />
            </Array>
          </mxGeometry>
        </mxCell>
        <mxCell id="OFLN6ch1py2yGaiHkbmR-174" value="getService" style="edgeLabel;resizable=0;html=1;align=center;verticalAlign=middle;" parent="OFLN6ch1py2yGaiHkbmR-173" connectable="0" vertex="1">
          <mxGeometry relative="1" as="geometry" />
        </mxCell>
        <mxCell id="OFLN6ch1py2yGaiHkbmR-177" value="&lt;font color=&quot;#FF0000&quot;&gt;@Component&lt;/font&gt;" style="text;html=1;strokeColor=none;fillColor=none;align=center;verticalAlign=middle;whiteSpace=wrap;rounded=0;" parent="1" vertex="1">
          <mxGeometry x="1480" y="609" width="40" height="20" as="geometry" />
        </mxCell>
        <mxCell id="OFLN6ch1py2yGaiHkbmR-178" value="&lt;font color=&quot;#FF0000&quot;&gt;@Component &amp;amp; @RpcService&lt;br&gt;&lt;/font&gt;" style="text;html=1;strokeColor=none;fillColor=none;align=center;verticalAlign=middle;whiteSpace=wrap;rounded=0;" parent="1" vertex="1">
          <mxGeometry x="1670" y="811.25" width="100" height="20" as="geometry" />
        </mxCell>
        <mxCell id="OFLN6ch1py2yGaiHkbmR-179" value="&lt;font color=&quot;#FF0000&quot;&gt;@Component&lt;/font&gt;" style="text;html=1;strokeColor=none;fillColor=none;align=center;verticalAlign=middle;whiteSpace=wrap;rounded=0;" parent="1" vertex="1">
          <mxGeometry x="1500" y="457.5" width="40" height="20" as="geometry" />
        </mxCell>
        <mxCell id="OFLN6ch1py2yGaiHkbmR-182" value="" style="edgeStyle=orthogonalEdgeStyle;rounded=0;orthogonalLoop=1;jettySize=auto;html=1;startArrow=diamondThin;startFill=1;endArrow=classic;endFill=1;exitX=0.5;exitY=0;exitDx=0;exitDy=0;" parent="1" source="OFLN6ch1py2yGaiHkbmR-41" target="OFLN6ch1py2yGaiHkbmR-183" edge="1">
          <mxGeometry relative="1" as="geometry">
            <mxPoint x="750" y="390" as="sourcePoint" />
          </mxGeometry>
        </mxCell>
        <mxCell id="OFLN6ch1py2yGaiHkbmR-183" value="LoadBalance" style="whiteSpace=wrap;html=1;rounded=0;strokeColor=#82b366;fillColor=#d5e8d4;" parent="1" vertex="1">
          <mxGeometry x="690" y="320" width="120" height="40" as="geometry" />
        </mxCell>
        <mxCell id="OFLN6ch1py2yGaiHkbmR-185" value="" style="endArrow=classic;html=1;exitX=0.5;exitY=0;exitDx=0;exitDy=0;entryX=0;entryY=0.5;entryDx=0;entryDy=0;shape=flexArrow;" parent="1" source="OFLN6ch1py2yGaiHkbmR-159" target="OFLN6ch1py2yGaiHkbmR-64" edge="1">
          <mxGeometry width="50" height="50" relative="1" as="geometry">
            <mxPoint x="1150" y="650" as="sourcePoint" />
            <mxPoint x="1200" y="600" as="targetPoint" />
            <Array as="points">
              <mxPoint x="1090" y="696" />
              <mxPoint x="1110" y="620" />
              <mxPoint x="1150" y="540" />
            </Array>
          </mxGeometry>
        </mxCell>
        <mxCell id="OFLN6ch1py2yGaiHkbmR-191" value="ZkServiceDiscovery" style="whiteSpace=wrap;html=1;rounded=0;strokeColor=#6c8ebf;fillColor=#dae8fc;" parent="1" vertex="1">
          <mxGeometry x="-20" y="1246" width="120" height="40" as="geometry" />
        </mxCell>
        <mxCell id="OFLN6ch1py2yGaiHkbmR-192" value="ServiceDiscory" style="swimlane;fontStyle=1;childLayout=stackLayout;horizontal=1;startSize=26;fillColor=#d5e8d4;horizontalStack=0;resizeParent=1;resizeParentMax=0;resizeLast=0;collapsible=1;marginBottom=0;strokeWidth=1;strokeColor=#82b366;" parent="1" vertex="1">
          <mxGeometry x="130" y="1240" width="325" height="52" as="geometry" />
        </mxCell>
        <mxCell id="OFLN6ch1py2yGaiHkbmR-193" value="InetSocketAddress = lookupService(String serviceName)" style="text;strokeColor=#82b366;fillColor=#d5e8d4;align=left;verticalAlign=top;spacingLeft=4;spacingRight=4;overflow=hidden;rotatable=0;points=[[0,0.5],[1,0.5]];portConstraint=eastwest;" parent="OFLN6ch1py2yGaiHkbmR-192" vertex="1">
          <mxGeometry y="26" width="325" height="26" as="geometry" />
        </mxCell>
        <mxCell id="OFLN6ch1py2yGaiHkbmR-194" value="" style="endArrow=classic;html=1;dashed=1;exitX=1;exitY=0.5;exitDx=0;exitDy=0;entryX=0;entryY=0.5;entryDx=0;entryDy=0;" parent="1" source="OFLN6ch1py2yGaiHkbmR-191" target="OFLN6ch1py2yGaiHkbmR-192" edge="1">
          <mxGeometry width="50" height="50" relative="1" as="geometry">
            <mxPoint x="230" y="1326" as="sourcePoint" />
            <mxPoint x="280" y="1276" as="targetPoint" />
          </mxGeometry>
        </mxCell>
        <mxCell id="OFLN6ch1py2yGaiHkbmR-195" value="" style="edgeStyle=orthogonalEdgeStyle;rounded=0;orthogonalLoop=1;jettySize=auto;html=1;startArrow=diamondThin;startFill=1;endArrow=classic;endFill=1;exitX=0.5;exitY=0;exitDx=0;exitDy=0;" parent="1" source="OFLN6ch1py2yGaiHkbmR-191" target="OFLN6ch1py2yGaiHkbmR-196" edge="1">
          <mxGeometry relative="1" as="geometry">
            <mxPoint x="45" y="1236" as="sourcePoint" />
          </mxGeometry>
        </mxCell>
        <mxCell id="OFLN6ch1py2yGaiHkbmR-196" value="LoadBalance" style="whiteSpace=wrap;html=1;rounded=0;strokeColor=#82b366;fillColor=#d5e8d4;" parent="1" vertex="1">
          <mxGeometry x="-20" y="1150" width="120" height="40" as="geometry" />
        </mxCell>
        <mxCell id="OFLN6ch1py2yGaiHkbmR-197" value="" style="endArrow=classic;html=1;exitX=0.5;exitY=1;exitDx=0;exitDy=0;entryX=0.5;entryY=0;entryDx=0;entryDy=0;endFill=1;edgeStyle=orthogonalEdgeStyle;dashed=1;" parent="1" source="OFLN6ch1py2yGaiHkbmR-191" target="OFLN6ch1py2yGaiHkbmR-207" edge="1">
          <mxGeometry width="50" height="50" relative="1" as="geometry">
            <mxPoint x="160" y="1270" as="sourcePoint" />
            <mxPoint x="70" y="1350" as="targetPoint" />
          </mxGeometry>
        </mxCell>
        <mxCell id="OFLN6ch1py2yGaiHkbmR-203" value="CuratorFramework " style="swimlane;fontStyle=1;childLayout=stackLayout;horizontal=1;startSize=26;fillColor=#d5e8d4;horizontalStack=0;resizeParent=1;resizeParentMax=0;resizeLast=0;collapsible=1;marginBottom=0;strokeWidth=1;strokeColor=#82b366;" parent="1" vertex="1">
          <mxGeometry x="-125" y="1410" width="330" height="78" as="geometry" />
        </mxCell>
        <mxCell id="OFLN6ch1py2yGaiHkbmR-204" value="List&lt;String&gt; getChildrenNodes().forPath(String servicPaht)" style="text;strokeColor=#82b366;fillColor=#d5e8d4;align=left;verticalAlign=top;spacingLeft=4;spacingRight=4;overflow=hidden;rotatable=0;points=[[0,0.5],[1,0.5]];portConstraint=eastwest;" parent="OFLN6ch1py2yGaiHkbmR-203" vertex="1">
          <mxGeometry y="26" width="330" height="26" as="geometry" />
        </mxCell>
        <mxCell id="OFLN6ch1py2yGaiHkbmR-227" value="create().forPath()" style="text;strokeColor=#82b366;fillColor=#d5e8d4;align=left;verticalAlign=top;spacingLeft=4;spacingRight=4;overflow=hidden;rotatable=0;points=[[0,0.5],[1,0.5]];portConstraint=eastwest;" parent="OFLN6ch1py2yGaiHkbmR-203" vertex="1">
          <mxGeometry y="52" width="330" height="26" as="geometry" />
        </mxCell>
        <mxCell id="OFLN6ch1py2yGaiHkbmR-207" value="CuratorUtils" style="rounded=0;whiteSpace=wrap;html=1;strokeWidth=1;fillColor=#dae8fc;strokeColor=#6c8ebf;" parent="1" vertex="1">
          <mxGeometry x="240" y="1410" width="130" height="40" as="geometry" />
        </mxCell>
        <mxCell id="OFLN6ch1py2yGaiHkbmR-210" value="ZooKeeper" style="text;html=1;strokeColor=none;fillColor=none;align=center;verticalAlign=middle;whiteSpace=wrap;rounded=0;" parent="1" vertex="1">
          <mxGeometry x="362.5" y="1330" width="40" height="20" as="geometry" />
        </mxCell>
        <mxCell id="OFLN6ch1py2yGaiHkbmR-211" value="" style="endArrow=classic;html=1;exitX=0.5;exitY=1;exitDx=0;exitDy=0;entryX=0;entryY=0.5;entryDx=0;entryDy=0;endFill=1;edgeStyle=orthogonalEdgeStyle;dashed=1;" parent="1" target="OFLN6ch1py2yGaiHkbmR-204" edge="1">
          <mxGeometry width="50" height="50" relative="1" as="geometry">
            <mxPoint x="40" y="1286" as="sourcePoint" />
            <mxPoint x="140" y="1330" as="targetPoint" />
          </mxGeometry>
        </mxCell>
        <mxCell id="OFLN6ch1py2yGaiHkbmR-235" value="ServiceProviderImpl" style="rounded=0;whiteSpace=wrap;html=1;strokeWidth=1;fillColor=#dae8fc;strokeColor=#6c8ebf;" parent="1" vertex="1">
          <mxGeometry x="-14.879999999999999" y="1760" width="120" height="60" as="geometry" />
        </mxCell>
        <mxCell id="OFLN6ch1py2yGaiHkbmR-236" value="ServiceProvider" style="swimlane;fontStyle=1;childLayout=stackLayout;horizontal=1;startSize=50;fillColor=#d5e8d4;horizontalStack=0;resizeParent=1;resizeParentMax=0;resizeLast=0;collapsible=1;marginBottom=0;strokeWidth=1;strokeColor=#82b366;" parent="1" vertex="1">
          <mxGeometry x="177.59000000000003" y="1726" width="140" height="128" as="geometry">
            <mxRectangle x="980" y="1156" width="120" height="50" as="alternateBounds" />
          </mxGeometry>
        </mxCell>
        <mxCell id="OFLN6ch1py2yGaiHkbmR-237" value="addService" style="text;strokeColor=#82b366;fillColor=#d5e8d4;align=left;verticalAlign=top;spacingLeft=4;spacingRight=4;overflow=hidden;rotatable=0;points=[[0,0.5],[1,0.5]];portConstraint=eastwest;" parent="OFLN6ch1py2yGaiHkbmR-236" vertex="1">
          <mxGeometry y="50" width="140" height="26" as="geometry" />
        </mxCell>
        <mxCell id="OFLN6ch1py2yGaiHkbmR-238" value="getService" style="text;strokeColor=#82b366;fillColor=#d5e8d4;align=left;verticalAlign=top;spacingLeft=4;spacingRight=4;overflow=hidden;rotatable=0;points=[[0,0.5],[1,0.5]];portConstraint=eastwest;" parent="OFLN6ch1py2yGaiHkbmR-236" vertex="1">
          <mxGeometry y="76" width="140" height="26" as="geometry" />
        </mxCell>
        <mxCell id="OFLN6ch1py2yGaiHkbmR-239" value="publishService" style="text;strokeColor=#82b366;fillColor=#d5e8d4;align=left;verticalAlign=top;spacingLeft=4;spacingRight=4;overflow=hidden;rotatable=0;points=[[0,0.5],[1,0.5]];portConstraint=eastwest;" parent="OFLN6ch1py2yGaiHkbmR-236" vertex="1">
          <mxGeometry y="102" width="140" height="26" as="geometry" />
        </mxCell>
        <mxCell id="OFLN6ch1py2yGaiHkbmR-240" value="" style="rounded=0;orthogonalLoop=1;jettySize=auto;html=1;startArrow=none;startFill=0;endArrow=block;endFill=0;dashed=1;entryX=0;entryY=0.5;entryDx=0;entryDy=0;exitX=1;exitY=0.5;exitDx=0;exitDy=0;edgeStyle=orthogonalEdgeStyle;" parent="1" source="OFLN6ch1py2yGaiHkbmR-235" target="OFLN6ch1py2yGaiHkbmR-237" edge="1">
          <mxGeometry relative="1" as="geometry">
            <mxPoint x="175.12" y="1160" as="sourcePoint" />
            <mxPoint x="190.46000000000018" y="1160.25" as="targetPoint" />
          </mxGeometry>
        </mxCell>
        <mxCell id="OFLN6ch1py2yGaiHkbmR-241" value="ServiceRegistry" style="swimlane;fontStyle=1;childLayout=stackLayout;horizontal=1;startSize=50;fillColor=#d5e8d4;horizontalStack=0;resizeParent=1;resizeParentMax=0;resizeLast=0;collapsible=1;marginBottom=0;strokeWidth=1;strokeColor=#82b366;" parent="1" vertex="1">
          <mxGeometry x="-69.88000000000005" y="1650" width="230" height="76" as="geometry" />
        </mxCell>
        <mxCell id="OFLN6ch1py2yGaiHkbmR-242" value="registerService(serviceName, ip &amp; port)" style="text;strokeColor=#82b366;fillColor=#d5e8d4;align=left;verticalAlign=top;spacingLeft=4;spacingRight=4;overflow=hidden;rotatable=0;points=[[0,0.5],[1,0.5]];portConstraint=eastwest;" parent="OFLN6ch1py2yGaiHkbmR-241" vertex="1">
          <mxGeometry y="50" width="230" height="26" as="geometry" />
        </mxCell>
        <mxCell id="OFLN6ch1py2yGaiHkbmR-243" value="" style="endArrow=classic;html=1;exitX=0.5;exitY=0;exitDx=0;exitDy=0;entryX=0.5;entryY=1;entryDx=0;entryDy=0;startArrow=diamondThin;startFill=1;" parent="1" source="OFLN6ch1py2yGaiHkbmR-235" target="OFLN6ch1py2yGaiHkbmR-241" edge="1">
          <mxGeometry width="50" height="50" relative="1" as="geometry">
            <mxPoint x="-134.88000000000005" y="1190" as="sourcePoint" />
            <mxPoint x="-84.88" y="1140" as="targetPoint" />
          </mxGeometry>
        </mxCell>
        <mxCell id="OFLN6ch1py2yGaiHkbmR-244" value="" style="endArrow=classic;html=1;dashed=1;exitX=1;exitY=0.5;exitDx=0;exitDy=0;entryX=1;entryY=0.5;entryDx=0;entryDy=0;edgeStyle=orthogonalEdgeStyle;" parent="1" source="OFLN6ch1py2yGaiHkbmR-239" target="OFLN6ch1py2yGaiHkbmR-241" edge="1">
          <mxGeometry width="50" height="50" relative="1" as="geometry">
            <mxPoint x="-134.88000000000005" y="1190" as="sourcePoint" />
            <mxPoint x="-84.88" y="1140" as="targetPoint" />
          </mxGeometry>
        </mxCell>
        <mxCell id="OFLN6ch1py2yGaiHkbmR-245" value="ZkServiceRegistry" style="rounded=0;whiteSpace=wrap;html=1;strokeWidth=1;fillColor=#dae8fc;strokeColor=#6c8ebf;" parent="1" vertex="1">
          <mxGeometry x="-27.47" y="1560" width="120" height="60" as="geometry" />
        </mxCell>
        <mxCell id="OFLN6ch1py2yGaiHkbmR-246" value="" style="endArrow=classic;html=1;dashed=1;exitX=0;exitY=0.5;exitDx=0;exitDy=0;edgeStyle=orthogonalEdgeStyle;entryX=-0.009;entryY=0.607;entryDx=0;entryDy=0;entryPerimeter=0;" parent="1" source="OFLN6ch1py2yGaiHkbmR-245" target="OFLN6ch1py2yGaiHkbmR-241" edge="1">
          <mxGeometry width="50" height="50" relative="1" as="geometry">
            <mxPoint x="2.5300000000000002" y="1360" as="sourcePoint" />
            <mxPoint x="-132.41" y="1688" as="targetPoint" />
            <Array as="points">
              <mxPoint x="-142.41" y="1590" />
              <mxPoint x="-142.41" y="1696" />
            </Array>
          </mxGeometry>
        </mxCell>
        <mxCell id="OFLN6ch1py2yGaiHkbmR-247" value="" style="endArrow=classic;html=1;exitX=0.5;exitY=0;exitDx=0;exitDy=0;entryX=0;entryY=0.75;entryDx=0;entryDy=0;endFill=1;edgeStyle=orthogonalEdgeStyle;dashed=1;" parent="1" source="OFLN6ch1py2yGaiHkbmR-245" target="OFLN6ch1py2yGaiHkbmR-203" edge="1">
          <mxGeometry width="50" height="50" relative="1" as="geometry">
            <mxPoint x="420" y="1600" as="sourcePoint" />
            <mxPoint x="329.99999999999955" y="1720" as="targetPoint" />
            <Array as="points">
              <mxPoint x="32" y="1540" />
              <mxPoint x="-135" y="1540" />
              <mxPoint x="-135" y="1468" />
            </Array>
          </mxGeometry>
        </mxCell>
        <mxCell id="OFLN6ch1py2yGaiHkbmR-248" value="" style="endArrow=classic;html=1;exitX=0.75;exitY=0;exitDx=0;exitDy=0;entryX=0.5;entryY=1;entryDx=0;entryDy=0;endFill=1;edgeStyle=orthogonalEdgeStyle;dashed=1;" parent="1" source="OFLN6ch1py2yGaiHkbmR-245" target="OFLN6ch1py2yGaiHkbmR-207" edge="1">
          <mxGeometry width="50" height="50" relative="1" as="geometry">
            <mxPoint x="450" y="1600" as="sourcePoint" />
            <mxPoint x="512.5" y="1640" as="targetPoint" />
          </mxGeometry>
        </mxCell>
        <mxCell id="OFLN6ch1py2yGaiHkbmR-250" value="" style="endArrow=classic;html=1;exitX=0;exitY=0.5;exitDx=0;exitDy=0;startArrow=diamondThin;startFill=1;edgeStyle=orthogonalEdgeStyle;" parent="1" source="OFLN6ch1py2yGaiHkbmR-207" edge="1">
          <mxGeometry width="50" height="50" relative="1" as="geometry">
            <mxPoint x="240" y="1490" as="sourcePoint" />
            <mxPoint x="205" y="1430" as="targetPoint" />
          </mxGeometry>
        </mxCell>
        <mxCell id="KRnrfPGz_-4YkNt3gOo6-1" value="" style="endArrow=block;html=1;endFill=0;dashed=1;" edge="1" parent="1">
          <mxGeometry width="50" height="50" relative="1" as="geometry">
            <mxPoint x="1200" y="1240" as="sourcePoint" />
            <mxPoint x="1320" y="1240" as="targetPoint" />
          </mxGeometry>
        </mxCell>
        <mxCell id="KRnrfPGz_-4YkNt3gOo6-2" value="左侧&lt;b&gt;&amp;nbsp;&amp;nbsp; &amp;nbsp; &amp;nbsp; &amp;nbsp; &amp;nbsp; &amp;nbsp; &amp;nbsp;&amp;nbsp;&amp;nbsp; 实现&lt;/b&gt;&amp;nbsp;&amp;nbsp;&amp;nbsp;&amp;nbsp;&amp;nbsp; &amp;nbsp; &amp;nbsp;&amp;nbsp; &amp;nbsp;&amp;nbsp;&amp;nbsp;&amp;nbsp; 右侧" style="text;html=1;align=center;verticalAlign=middle;resizable=0;points=[];autosize=1;" vertex="1" parent="1">
          <mxGeometry x="1155" y="1210" width="210" height="20" as="geometry" />
        </mxCell>
        <mxCell id="KRnrfPGz_-4YkNt3gOo6-3" value="" style="endArrow=classic;html=1;endFill=1;" edge="1" parent="1">
          <mxGeometry width="50" height="50" relative="1" as="geometry">
            <mxPoint x="1200" y="1300" as="sourcePoint" />
            <mxPoint x="1320" y="1300" as="targetPoint" />
          </mxGeometry>
        </mxCell>
        <mxCell id="KRnrfPGz_-4YkNt3gOo6-4" value="左侧&lt;b&gt;&amp;nbsp;&amp;nbsp; &amp;nbsp; &amp;nbsp; &amp;nbsp; &amp;nbsp; &amp;nbsp; &amp;nbsp;&amp;nbsp;&amp;nbsp; 关联&lt;/b&gt; &amp;nbsp;&amp;nbsp;&amp;nbsp;&amp;nbsp; &amp;nbsp; &amp;nbsp;&amp;nbsp; &amp;nbsp;&amp;nbsp;&amp;nbsp;&amp;nbsp; 右侧" style="text;html=1;align=center;verticalAlign=middle;resizable=0;points=[];autosize=1;" vertex="1" parent="1">
          <mxGeometry x="1155" y="1272" width="210" height="20" as="geometry" />
        </mxCell>
        <mxCell id="KRnrfPGz_-4YkNt3gOo6-5" value="" style="endArrow=classic;html=1;endFill=1;startArrow=diamondThin;startFill=0;" edge="1" parent="1">
          <mxGeometry width="50" height="50" relative="1" as="geometry">
            <mxPoint x="1200" y="1360" as="sourcePoint" />
            <mxPoint x="1320" y="1360" as="targetPoint" />
          </mxGeometry>
        </mxCell>
        <mxCell id="KRnrfPGz_-4YkNt3gOo6-6" value="左侧&lt;b&gt;&amp;nbsp;&amp;nbsp; &amp;nbsp; &amp;nbsp; &amp;nbsp; &amp;nbsp; &amp;nbsp; &amp;nbsp;&amp;nbsp;&amp;nbsp; 聚合&lt;/b&gt; &amp;nbsp;&amp;nbsp;&amp;nbsp;&amp;nbsp; &amp;nbsp; &amp;nbsp;&amp;nbsp; &amp;nbsp;&amp;nbsp;&amp;nbsp;&amp;nbsp; 右侧" style="text;html=1;align=center;verticalAlign=middle;resizable=0;points=[];autosize=1;" vertex="1" parent="1">
          <mxGeometry x="1155" y="1330" width="210" height="20" as="geometry" />
        </mxCell>
        <mxCell id="KRnrfPGz_-4YkNt3gOo6-7" value="" style="endArrow=classic;html=1;endFill=1;startArrow=diamondThin;startFill=1;" edge="1" parent="1">
          <mxGeometry width="50" height="50" relative="1" as="geometry">
            <mxPoint x="1200" y="1409.6" as="sourcePoint" />
            <mxPoint x="1320" y="1409.6" as="targetPoint" />
          </mxGeometry>
        </mxCell>
        <mxCell id="KRnrfPGz_-4YkNt3gOo6-8" value="左侧&lt;b&gt;&amp;nbsp;&amp;nbsp; &amp;nbsp; &amp;nbsp; &amp;nbsp; &amp;nbsp; &amp;nbsp; &amp;nbsp;&amp;nbsp;&amp;nbsp; 组合&lt;/b&gt; &amp;nbsp;&amp;nbsp;&amp;nbsp;&amp;nbsp; &amp;nbsp; &amp;nbsp;&amp;nbsp; &amp;nbsp;&amp;nbsp;&amp;nbsp;&amp;nbsp; 右侧" style="text;html=1;align=center;verticalAlign=middle;resizable=0;points=[];autosize=1;" vertex="1" parent="1">
          <mxGeometry x="1155" y="1379.6" width="210" height="20" as="geometry" />
        </mxCell>
        <mxCell id="KRnrfPGz_-4YkNt3gOo6-9" value="" style="endArrow=classic;html=1;endFill=1;startArrow=none;startFill=0;dashed=1;" edge="1" parent="1">
          <mxGeometry width="50" height="50" relative="1" as="geometry">
            <mxPoint x="1200" y="1463.8" as="sourcePoint" />
            <mxPoint x="1320" y="1463.8" as="targetPoint" />
          </mxGeometry>
        </mxCell>
        <mxCell id="KRnrfPGz_-4YkNt3gOo6-10" value="&lt;b&gt;依赖&lt;/b&gt;" style="text;html=1;align=center;verticalAlign=middle;resizable=0;points=[];autosize=1;" vertex="1" parent="1">
          <mxGeometry x="1240" y="1439" width="40" height="20" as="geometry" />
        </mxCell>
      </root>
    </mxGraphModel>
  </diagram>
</mxfile>
